<svg xmlns="http://www.w3.org/2000/svg" viewBox="0 0 1920 1080">
  <defs>
    <linearGradient id="greenGrad" x1="0%" y1="0%" x2="0%" y2="100%">
      <stop offset="0%" style="stop-color:#90EE90;stop-opacity:1" />
      <stop offset="100%" style="stop-color:#228B22;stop-opacity:1" />
    </linearGradient>
    <linearGradient id="buildingModern" x1="0%" y1="0%" x2="0%" y2="100%">
      <stop offset="0%" style="stop-color:#00D4FF;stop-opacity:1" />
      <stop offset="100%" style="stop-color:#0A66C2;stop-opacity:1" />
    </linearGradient>
  </defs>
  
  <!-- Sky -->
  <rect width="1920" height="700" fill="#87CEEB"/>
  
  <!-- Clouds -->
  <ellipse cx="300" cy="150" rx="80" ry="40" fill="white" opacity="0.8"/>
  <ellipse cx="350" cy="150" rx="70" ry="35" fill="white" opacity="0.8"/>
  <ellipse cx="1500" cy="200" rx="100" ry="50" fill="white" opacity="0.8"/>
  
  <!-- Sun -->
  <circle cx="1700" cy="150" r="70" fill="#FFD700" opacity="0.9"/>
  
  <!-- Green Spaces -->
  <rect y="700" width="1920" height="380" fill="url(#greenGrad)"/>
  
  <!-- Smart City Buildings -->
  <!-- Building 1 - Eco Friendly -->
  <rect x="100" y="400" width="200" height="300" fill="url(#buildingModern)" rx="10"/>
  <rect x="130" y="430" width="40" height="40" fill="#50C878"/> <!-- Solar Panel -->
  <rect x="190" y="430" width="40" height="40" fill="#50C878"/>
  <rect x="130" y="490" width="40" height="40" fill="#87CEEB" opacity="0.7"/>
  <rect x="190" y="490" width="40" height="40" fill="#87CEEB" opacity="0.7"/>
  
  <!-- Building 2 - Modern Tower -->
  <rect x="400" y="300" width="250" height="400" fill="url(#buildingModern)" rx="10"/>
  <g opacity="0.7">
    <rect x="430" y="330" width="50" height="50" fill="#87CEEB"/>
    <rect x="510" y="330" width="50" height="50" fill="#87CEEB"/>
    <rect x="590" y="330" width="50" height="50" fill="#87CEEB"/>
    <rect x="430" y="410" width="50" height="50" fill="#87CEEB"/>
    <rect x="510" y="410" width="50" height="50" fill="#87CEEB"/>
    <rect x="590" y="410" width="50" height="50" fill="#87CEEB"/>
  </g>
  
  <!-- Building 3 - Green Building -->
  <rect x="750" y="350" width="220" height="350" fill="url(#buildingModern)" rx="10"/>
  <!-- Vertical Garden -->
  <rect x="780" y="380" width="40" height="100" fill="#228B22" opacity="0.8"/>
  <rect x="840" y="380" width="40" height="100" fill="#228B22" opacity="0.8"/>
  <rect x="900" y="380" width="40" height="100" fill="#228B22" opacity="0.8"/>
  
  <!-- Building 4 -->
  <rect x="1050" y="400" width="180" height="300" fill="url(#buildingModern)" rx="10"/>
  
  <!-- Building 5 -->
  <rect x="1300" y="350" width="200" height="350" fill="url(#buildingModern)" rx="10"/>
  
  <!-- Trees and Parks -->
  <circle cx="200" cy="850" r="50" fill="#228B22"/>
  <rect x="190" y="880" width="20" height="70" fill="#8B4513"/>
  
  <circle cx="600" cy="850" r="50" fill="#228B22"/>
  <rect x="590" y="880" width="20" height="70" fill="#8B4513"/>
  
  <circle cx="1100" cy="850" r="50" fill="#228B22"/>
  <rect x="1090" y="880" width="20" height="70" fill="#8B4513"/>
  
  <circle cx="1650" cy="850" r="50" fill="#228B22"/>
  <rect x="1640" y="880" width="20" height="70" fill="#8B4513"/>
  
  <!-- Solar Panels Field -->
  <rect x="1550" y="800" width="300" height="150" fill="#1E3A5F"/>
  <g fill="#0066CC" opacity="0.7">
    <rect x="1560" y="810" width="60" height="40"/>
    <rect x="1640" y="810" width="60" height="40"/>
    <rect x="1720" y="810" width="60" height="40"/>
    <rect x="1560" y="870" width="60" height="40"/>
    <rect x="1640" y="870" width="60" height="40"/>
    <rect x="1720" y="870" width="60" height="40"/>
  </g>
  
  <!-- Wind Turbines -->
  <rect x="50" y="750" width="15" height="150" fill="white"/>
  <line x1="57" y1="760" x2="57" y2="680" stroke="white" stroke-width="6"/>
  <line x1="30" y1="710" x2="84" y2="710" stroke="white" stroke-width="6"/>
  <line x1="57" y1="740" x2="30" y2="680" stroke="white" stroke-width="6"/>
  
  <!-- Smart City Elements -->
  <circle cx="960" cy="200" r="80" fill="#FFD700" opacity="0.3"/> <!-- Innovation Halo -->
  
  <!-- Text -->
  <text x="960" y="150" font-family="Arial, sans-serif" font-size="64" fill="#0A66C2" text-anchor="middle" font-weight="bold">SUSTAINABLE DEVELOPMENT</text>
  <text x="960" y="220" font-family="Arial, sans-serif" font-size="36" fill="#228B22" text-anchor="middle">Smart Cities • Green Infrastructure</text>
  
  <!-- Icons -->
  <text x="900" y="1000" font-size="48">♻️</text>
  <text x="1000" y="1000" font-size="48">🌱</text>
  <text x="1100" y="1000" font-size="48">⚡</text>
</svg>
