<svg xmlns="http://www.w3.org/2000/svg" viewBox="0 0 800 600">
  <defs>
    <linearGradient id="innovGrad" x1="0%" y1="0%" x2="100%" y2="100%">
      <stop offset="0%" style="stop-color:#FFD60A;stop-opacity:1" />
      <stop offset="100%" style="stop-color:#FF6B35;stop-opacity:1" />
    </linearGradient>
  </defs>
  <!-- Light bulb -->
  <ellipse cx="400" cy="350" rx="120" ry="140" fill="url(#innovGrad)" opacity="0.8"/>
  <rect x="360" y="480" width="80" height="40" rx="5" fill="#2C5364"/>
  <rect x="370" y="520" width="60" height="10" rx="5" fill="#2C5364"/>
  <!-- Light rays -->
  <line x1="400" y1="200" x2="400" y2="150" stroke="#FFD60A" stroke-width="6" stroke-linecap="round"/>
  <line x1="280" y1="250" x2="240" y2="210" stroke="#FFD60A" stroke-width="6" stroke-linecap="round"/>
  <line x1="520" y1="250" x2="560" y2="210" stroke="#FFD60A" stroke-width="6" stroke-linecap="round"/>
  <line x1="250" y1="350" x2="180" y2="350" stroke="#FFD60A" stroke-width="6" stroke-linecap="round"/>
  <line x1="550" y1="350" x2="620" y2="350" stroke="#FFD60A" stroke-width="6" stroke-linecap="round"/>
  <!-- Filament -->
  <path d="M 370 300 Q 380 320 370 340 Q 360 360 370 380 Q 380 400 370 420" stroke="#FF6B35" stroke-width="4" fill="none"/>
  <path d="M 430 300 Q 420 320 430 340 Q 440 360 430 380 Q 420 400 430 420" stroke="#FF6B35" stroke-width="4" fill="none"/>
</svg>
