<svg xmlns="http://www.w3.org/2000/svg" viewBox="0 0 1920 1080">
  <defs>
    <linearGradient id="blobGrad" x1="0%" y1="0%" x2="100%" y2="100%">
      <stop offset="0%" style="stop-color:#FF6B35;stop-opacity:0.15" />
      <stop offset="100%" style="stop-color:#FF006E;stop-opacity:0.1" />
    </linearGradient>
  </defs>
  <path d="M684.5,341.5Q610,433,515,456.5Q420,480,347,526Q274,572,229.5,518Q185,464,134,407Q83,350,101,270.5Q119,191,189.5,155Q260,119,335,105.5Q410,92,491,89.5Q572,87,632.5,143.5Q693,200,719,275Q745,350,684.5,341.5Z" fill="url(#blobGrad)" transform="translate(300,200)"/>
  <path d="M1344.5,541.5Q1270,633,1175,656.5Q1080,680,1007,626Q934,572,889.5,518Q845,464,794,407Q743,350,761,270.5Q779,191,849.5,155Q920,119,995,105.5Q1070,92,1151,89.5Q1232,87,1292.5,143.5Q1353,200,1379,275Q1405,350,1344.5,541.5Z" fill="url(#blobGrad)" transform="translate(400,300)"/>
</svg>
