<svg xmlns="http://www.w3.org/2000/svg" viewBox="0 0 100 100">
  <circle cx="50" cy="50" r="45" fill="#181717"/>
  <path d="M50,25 C35,25 25,35 25,50 C25,62 32,72 42,75 C43,75 44,74 44,73 L44,68 C41,69 39,67 38,65 C37,63 35,62 33,62 C32,62 32,62 32,63 C32,63 34,63 35,65 C37,68 40,67 42,66 C42,65 43,64 44,63 C38,62 33,59 33,52 C33,48 34,45 37,43 C36,42 36,39 37,36 C37,36 40,36 44,39 C46,38 48,38 50,38 C52,38 54,38 56,39 C60,36 63,36 63,36 C64,39 64,42 63,43 C66,45 67,48 67,52 C67,59 62,62 56,63 C57,64 58,65 58,68 L58,73 C58,74 59,75 60,75 C68,72 75,62 75,50 C75,35 65,25 50,25 Z" fill="white"/>
</svg>
